<svg id="Capa_1" enable-background="new 0 0 512 512" height="512" viewBox="0 0 512 512" width="512" xmlns="http://www.w3.org/2000/svg"><g><path d="m1 450v17c0 24.813 20.187 45 45 45h420c24.813 0 45-20.187 45-45v-17z"/><g><circle cx="311" cy="270" r="15"/><circle cx="91" cy="270" r="15"/><circle cx="201" cy="130" r="15"/><circle cx="421" cy="130" r="15"/><path d="m466 0h-420c-24.813 0-45 20.187-45 45v375h510v-375c0-24.813-20.187-45-45-45zm-360 312.42v47.58c0 8.284-6.716 15-15 15s-15-6.716-15-15v-47.58c-17.459-6.192-30-22.865-30-42.42s12.541-36.228 30-42.42v-167.58c0-8.284 6.716-15 15-15s15 6.716 15 15v167.58c17.459 6.192 30 22.865 30 42.42s-12.541 36.228-30 42.42zm110-140v187.58c0 8.284-6.716 15-15 15s-15-6.716-15-15v-187.58c-17.459-6.192-30-22.865-30-42.42s12.541-36.228 30-42.42v-27.58c0-8.284 6.716-15 15-15s15 6.716 15 15v27.58c17.459 6.192 30 22.865 30 42.42s-12.541 36.228-30 42.42zm110 140v47.58c0 8.284-6.716 15-15 15s-15-6.716-15-15v-47.58c-17.459-6.192-30-22.865-30-42.42s12.541-36.228 30-42.42v-167.58c0-8.284 6.716-15 15-15s15 6.716 15 15v167.58c17.459 6.192 30 22.865 30 42.42s-12.541 36.228-30 42.42zm110-140v187.58c0 8.284-6.716 15-15 15s-15-6.716-15-15v-187.58c-17.459-6.192-30-22.865-30-42.42s12.541-36.228 30-42.42v-27.58c0-8.284 6.716-15 15-15s15 6.716 15 15v27.58c17.459 6.192 30 22.865 30 42.42s-12.541 36.228-30 42.42z"/></g></g></svg>