<svg id="Capa_1" enable-background="new 0 0 512 512" height="512" viewBox="0 0 512 512" width="512" xmlns="http://www.w3.org/2000/svg"><g><g><path d="m274.75 331h-15c-8.284 0-15-6.716-15-15v-145h-37.5v320h67.5z"/><path d="m79.75 171h30v130h-30z"/><path d="m177.25 491v-320h-37.5v145c0 8.284-6.716 15-15 15h-15v160z"/><path d="m274.75 171h30v130h-30z"/><path d="m402.25 171h30v130h-30z"/><path d="m462.25 171v145c0 8.284-6.716 15-15 15h-15v160h34.75c24.813 0 45-20.187 45-45v-275z"/><path d="m79.75 331h-15c-8.284 0-15-6.716-15-15v-145h-49.75v275c0 24.813 20.187 45 45 45h34.75z"/><path d="m402.25 331h-15c-8.284 0-15-6.716-15-15v-145h-37.5v145c0 8.284-6.716 15-15 15h-15v160h97.5z"/></g><path d="m467 21h-422c-24.813 0-45 20.187-45 45v75h512v-75c0-24.813-20.187-45-45-45zm-311 75h-80c-8.284 0-15-6.716-15-15s6.716-15 15-15h80c8.284 0 15 6.716 15 15s-6.716 15-15 15zm160 0c-8.284 0-15-6.716-15-15s6.716-15 15-15 15 6.716 15 15-6.716 15-15 15zm60 0c-8.284 0-15-6.716-15-15s6.716-15 15-15 15 6.716 15 15-6.716 15-15 15zm60 0c-8.284 0-15-6.716-15-15s6.716-15 15-15 15 6.716 15 15-6.716 15-15 15z"/></g></svg>